<svg width="18" height="18" viewBox="0 0 18 18" fill="none" xmlns="http://www.w3.org/2000/svg">
<g clip-path="url(#clip0_227:4823)">
<path d="M5.76853 5.95661C5.98715 5.738 5.98715 5.38355 5.76853 5.16494C5.54992 4.94632 5.19547 4.94632 4.97686 5.16494L1.61806 8.52373C1.40614 8.73566 1.39872 9.0769 1.60124 9.29784L4.68014 12.6566C4.88905 12.8845 5.24316 12.8999 5.47106 12.691C5.69897 12.4821 5.71437 12.128 5.50545 11.9001L2.78874 8.9364L5.76853 5.95661Z" fill="#6D64EB"/>
<path d="M12.7227 11.8823C12.5041 12.1009 12.5041 12.4553 12.7227 12.6739C12.9413 12.8925 13.2957 12.8925 13.5144 12.6739L16.8731 9.31514C17.0851 9.10321 17.0925 8.76196 16.89 8.54103L13.8111 5.18224C13.6022 4.95433 13.2481 4.93894 13.0201 5.14785C12.7922 5.35676 12.7768 5.71087 12.9858 5.93878L15.7025 8.90246L12.7227 11.8823Z" fill="#6D64EB"/>
<path d="M2.80469 8.58301L14.7835 8.58301" stroke="#6D64EB" stroke-width="1.33098" stroke-linecap="round" stroke-linejoin="round"/>
</g>
<defs>
<clipPath id="clip0_227:4823">
<rect width="17" height="17" fill="white" transform="translate(0.0371094 0.750977)"/>
</clipPath>
</defs>
</svg>
