<svg width="18" height="18" viewBox="0 0 18 18" fill="none" xmlns="http://www.w3.org/2000/svg">
<g clip-path="url(#clip0_227:4836)">
<path d="M5.6483 8.06712C7.23875 8.06712 8.52805 6.77781 8.52805 5.18737C8.52805 3.59692 7.23875 2.30762 5.6483 2.30762C4.05786 2.30762 2.76855 3.59692 2.76855 5.18737C2.76855 6.77781 4.05786 8.06712 5.6483 8.06712Z" stroke="#6D64EB" stroke-width="1.27347" stroke-linecap="round" stroke-linejoin="round"/>
<path d="M10.6876 15.9661C12.6719 15.9661 14.2805 14.3575 14.2805 12.3732C14.2805 10.3889 12.6719 8.78027 10.6876 8.78027C8.70332 8.78027 7.09473 10.3889 7.09473 12.3732C7.09473 14.3575 8.70332 15.9661 10.6876 15.9661Z" stroke="#6D64EB" stroke-width="1.27347" stroke-linecap="round" stroke-linejoin="round"/>
<path d="M3.49554 13.8133C4.29076 13.8133 4.93541 13.1687 4.93541 12.3735C4.93541 11.5782 4.29076 10.9336 3.49554 10.9336C2.70032 10.9336 2.05566 11.5782 2.05566 12.3735C2.05566 13.1687 2.70032 13.8133 3.49554 13.8133Z" stroke="#6D64EB" stroke-width="1.27347" stroke-linecap="round" stroke-linejoin="round"/>
</g>
<defs>
<clipPath id="clip0_227:4836">
<rect width="17" height="17" fill="white" transform="translate(0.0185547 0.990234)"/>
</clipPath>
</defs>
</svg>
