<svg width="16" height="16" viewBox="0 0 16 16" fill="none" xmlns="http://www.w3.org/2000/svg">
<path d="M2.66634 1.33301H7.99967C8.3533 1.33301 8.69243 1.47348 8.94248 1.72353C9.19253 1.97358 9.33301 2.31272 9.33301 2.66634V14.6663H2.66634C2.31272 14.6663 1.97358 14.5259 1.72353 14.2758C1.47348 14.0258 1.33301 13.6866 1.33301 13.333V2.66634C1.33301 2.31272 1.47348 1.97358 1.72353 1.72353C1.97358 1.47348 2.31272 1.33301 2.66634 1.33301V1.33301Z" stroke="#6D64EB" stroke-linecap="round" stroke-linejoin="round"/>
<path d="M9.33301 6.66699H13.333C13.6866 6.66699 14.0258 6.80747 14.2758 7.05752C14.5259 7.30757 14.6663 7.6467 14.6663 8.00033V13.3337C14.6663 13.6873 14.5259 14.0264 14.2758 14.2765C14.0258 14.5265 13.6866 14.667 13.333 14.667H9.33301" stroke="#6D64EB" stroke-linecap="round" stroke-linejoin="round"/>
<path d="M3.33301 4H3.99967" stroke="#6D64EB" stroke-linecap="round" stroke-linejoin="round"/>
<path d="M6 4H7.33333" stroke="#6D64EB" stroke-linecap="round" stroke-linejoin="round"/>
<path d="M3.33301 6.66699H3.99967" stroke="#6D64EB" stroke-linecap="round" stroke-linejoin="round"/>
<path d="M6 6.66699H7.33333" stroke="#6D64EB" stroke-linecap="round" stroke-linejoin="round"/>
<path d="M3.33301 9.33301H3.99967" stroke="#6D64EB" stroke-linecap="round" stroke-linejoin="round"/>
<path d="M6 9.33301H7.33333" stroke="#6D64EB" stroke-linecap="round" stroke-linejoin="round"/>
<path d="M3.33301 12H3.99967" stroke="#6D64EB" stroke-linecap="round" stroke-linejoin="round"/>
<path d="M6 12H7.33333" stroke="#6D64EB" stroke-linecap="round" stroke-linejoin="round"/>
<path d="M11.333 9.33301H12.6663" stroke="#6D64EB" stroke-linecap="round" stroke-linejoin="round"/>
<path d="M11.333 12H12.6663" stroke="#6D64EB" stroke-linecap="round" stroke-linejoin="round"/>
</svg>
