<svg width="18" height="18" viewBox="0 0 18 18" fill="none" xmlns="http://www.w3.org/2000/svg">
<g clip-path="url(#clip0_227:4820)">
<path d="M14.8936 7.71191C14.8936 12.6702 8.51855 16.9202 8.51855 16.9202C8.51855 16.9202 2.14355 12.6702 2.14355 7.71191C2.14355 6.02116 2.8152 4.39965 4.01075 3.20411C5.20629 2.00856 6.8278 1.33691 8.51855 1.33691C10.2093 1.33691 11.8308 2.00856 13.0264 3.20411C14.2219 4.39965 14.8936 6.02116 14.8936 7.71191Z" stroke="#6D64EB" stroke-width="1.27347" stroke-linecap="round" stroke-linejoin="round"/>
<path d="M8.51856 9.83692C9.69216 9.83692 10.6436 8.88552 10.6436 7.71191C10.6436 6.53831 9.69216 5.58691 8.51856 5.58691C7.34495 5.58691 6.39355 6.53831 6.39355 7.71191C6.39355 8.88552 7.34495 9.83692 8.51856 9.83692Z" stroke="#6D64EB" stroke-width="1.27347" stroke-linecap="round" stroke-linejoin="round"/>
</g>
<defs>
<clipPath id="clip0_227:4820">
<rect width="17" height="17" fill="white" transform="translate(0.0185547 0.628906)"/>
</clipPath>
</defs>
</svg>
