<svg width="16" height="16" viewBox="0 0 16 16" fill="none" xmlns="http://www.w3.org/2000/svg">
<path d="M8.42379 5.75179C8.30501 5.63602 8.11348 5.63725 7.9953 5.75665C5.41227 8.39118 3.68137 10.4403 2.48078 13.1172C2.41229 13.2699 2.48018 13.4493 2.63291 13.5178C2.67351 13.536 2.71592 13.5445 2.75714 13.5445C2.87228 13.5445 2.98319 13.4778 3.0341 13.3651C4.19773 10.7705 5.89286 8.76632 8.42862 6.18025C8.54561 6.06148 8.54316 5.86875 8.42379 5.75179Z" fill="#6D64EB" stroke="#6D64EB" stroke-width="0.296489"/>
<path d="M13.8181 2C7.30179 2 2 7.30179 2 13.8181C2 13.9854 2.13577 14.1212 2.30304 14.1212C6.65574 14.1212 10.6442 11.7375 12.7127 7.90119C12.763 7.80724 12.7605 7.69332 12.706 7.60241C12.6509 7.51091 12.552 7.45455 12.4454 7.45455H11.323L13.3357 6.30424C13.3999 6.26788 13.4484 6.2091 13.4721 6.13938C13.903 4.88544 14.1212 3.59454 14.1212 2.30304C14.1212 2.13577 13.9854 2 13.8181 2ZM12.9351 5.83512L10.0315 7.49392C9.91209 7.56301 9.85391 7.70241 9.88908 7.83514C9.92422 7.96846 10.0442 8.06059 10.1818 8.06059H11.9242C9.95328 11.3509 6.44847 13.4066 2.61031 13.5109C2.77031 7.5721 7.57148 2.77091 13.5108 2.61031C13.4799 3.69513 13.2866 4.77817 12.9351 5.83512Z" fill="#6D64EB" stroke="#6D64EB" stroke-width="0.296489"/>
</svg>
