<svg width="16" height="17" viewBox="0 0 16 17" fill="none" xmlns="http://www.w3.org/2000/svg">
<path d="M1 8.89006C1 5.02492 4.13332 1.8916 7.99846 1.8916C11.8636 1.8916 14.9969 5.02492 14.9969 8.89006C14.9969 12.7552 11.8636 15.8885 7.99846 15.8885C4.13332 15.8885 1 12.7552 1 8.89006ZM7.99846 2.8916L7.94908 2.8918C8.04038 3.07066 8.14036 3.28664 8.23045 3.526C8.47353 4.17181 8.69407 5.11757 8.30147 5.95358C7.93976 6.72381 7.31652 6.92329 6.85104 7.04356L6.78376 7.0609C6.33113 7.17748 6.14352 7.2258 6.00842 7.4309C5.88204 7.62277 5.90484 7.86358 6.0483 8.33107C6.05851 8.36434 6.06951 8.39942 6.08097 8.43591C6.13794 8.61745 6.20593 8.83409 6.24138 9.03789C6.28546 9.29121 6.29723 9.60973 6.13723 9.91675C5.97698 10.2243 5.76518 10.4329 5.51544 10.569C5.28037 10.6971 5.03638 10.7459 4.85133 10.7787L4.78274 10.7908C4.42453 10.8538 4.24283 10.8857 4.06811 11.0729C3.93128 11.2195 3.84609 11.4742 3.79668 11.8448C3.77651 11.996 3.76439 12.146 3.75192 12.3002L3.74523 12.3823C3.73117 12.5527 3.71389 12.7467 3.67611 12.9127L3.65101 13.023C4.74381 14.1722 6.28748 14.8885 7.99846 14.8885C9.11366 14.8885 10.1578 14.5842 11.0523 14.054C10.9728 13.976 10.8827 13.8795 10.7941 13.768C10.5571 13.4696 10.2503 12.9604 10.3567 12.3616C10.4078 12.0745 10.5619 11.833 10.7127 11.646C10.8663 11.4557 11.052 11.2794 11.2154 11.129C11.254 11.0935 11.291 11.0596 11.3267 11.0271C11.4519 10.9127 11.5592 10.8148 11.6509 10.7187C11.7075 10.6595 11.7478 10.6113 11.7751 10.5725C11.7982 10.5396 11.8053 10.5227 11.8064 10.5201C11.8064 10.5201 11.8065 10.5198 11.8064 10.5201C11.8572 10.3522 11.7955 10.2292 11.7226 10.1728C11.6678 10.1304 11.5274 10.0674 11.2769 10.2261C11.1795 10.2877 11.0928 10.3426 11.023 10.3831C10.9706 10.4135 10.8646 10.4751 10.7486 10.5005C10.6855 10.5143 10.5468 10.5344 10.3956 10.4634C10.2247 10.3831 10.1463 10.2398 10.1147 10.1413C10.087 10.0548 10.0858 9.97763 10.0861 9.9415C10.0865 9.89918 10.0902 9.85884 10.0933 9.8295C10.0958 9.80519 10.099 9.7793 10.1023 9.75171C10.128 9.54114 10.1656 9.23136 10.0454 8.76952C9.94862 8.39815 9.80773 8.11566 9.66386 7.8272C9.59755 7.69425 9.5306 7.56001 9.46706 7.41524C9.3795 7.21575 9.28321 6.95593 9.30015 6.67936C9.31972 6.35974 9.48176 6.09907 9.74297 5.90314C10.06 5.66534 10.4588 5.12105 10.8038 4.56985C10.9688 4.30621 11.1101 4.05991 11.2102 3.87934C11.2181 3.86502 11.2258 3.85111 11.2332 3.83766C10.2999 3.23886 9.18972 2.8916 7.99846 2.8916ZM12.0352 4.45305C11.9339 4.63318 11.8023 4.85942 11.6514 5.10038C11.3128 5.64141 10.8276 6.33967 10.343 6.70313C10.316 6.72337 10.3033 6.73738 10.2982 6.74383C10.2977 6.77061 10.3087 6.84463 10.3827 7.01335C10.4151 7.08701 10.4605 7.17831 10.513 7.28388C10.6692 7.59806 10.8884 8.0387 11.0131 8.51746C11.0797 8.77338 11.1111 9.00204 11.1229 9.19895C11.5589 9.05444 11.997 9.12085 12.3343 9.38167C12.7525 9.70506 12.9279 10.2662 12.7636 10.8098C12.6888 11.0574 12.5138 11.263 12.3743 11.4092C12.2564 11.5327 12.115 11.6616 11.9861 11.7793C11.954 11.8085 11.9226 11.8372 11.8926 11.8648C11.7311 12.0135 11.5939 12.1464 11.491 12.2739C11.3855 12.4048 11.3496 12.4898 11.3413 12.5365C11.312 12.7016 11.3927 12.9139 11.5771 13.146C11.6612 13.2519 11.7506 13.3409 11.8199 13.4038C11.8451 13.4267 11.867 13.4456 11.8842 13.4599C13.1769 12.3597 13.9969 10.7206 13.9969 8.89006C13.9969 7.13179 13.2404 5.55022 12.0352 4.45305ZM2 8.89006C2 9.97182 2.28635 10.9867 2.78739 11.863C2.79277 11.8133 2.79874 11.763 2.80545 11.7126C2.8594 11.308 2.97393 10.7796 3.3371 10.3905C3.75181 9.94625 4.26017 9.86283 4.58526 9.80948C4.61766 9.80416 4.64824 9.79914 4.67673 9.79409C4.85097 9.76319 4.95531 9.73538 5.03703 9.69086C5.10407 9.65433 5.17752 9.59451 5.25042 9.45461C5.26476 9.4271 5.28323 9.36475 5.25618 9.20929C5.23309 9.07655 5.18976 8.93764 5.13382 8.75831C5.12064 8.71608 5.10677 8.6716 5.0923 8.62444C4.96191 8.19955 4.75889 7.50998 5.17331 6.88082C5.53347 6.33403 6.11197 6.19415 6.48675 6.10353C6.52736 6.09371 6.56559 6.08447 6.60088 6.07535C6.99806 5.97273 7.23344 5.87531 7.39631 5.52851C7.60858 5.07648 7.5159 4.46634 7.29455 3.87827C7.18929 3.59862 7.06586 3.35303 6.96814 3.17684C6.92762 3.10378 6.892 3.04349 6.86462 2.99861C4.09389 3.52867 2 5.96484 2 8.89006Z" fill="#6D64EB"/>
</svg>
