<svg width="16" height="16" viewBox="0 0 16 16" fill="none" xmlns="http://www.w3.org/2000/svg">
<path d="M12.487 7.07929H12.667H12.847C14.0003 6.95262 14.667 5.46596 14.107 4.30596L12.847 1.71262C12.8328 1.67644 12.808 1.64536 12.7759 1.62346C12.7438 1.60156 12.7059 1.58984 12.667 1.58984C12.6281 1.58984 12.5902 1.60156 12.558 1.62346C12.5259 1.64536 12.5012 1.67644 12.487 1.71262L11.227 4.30596C10.667 5.46596 11.3337 6.95262 12.487 7.07929Z" stroke="#6D64EB" stroke-linecap="round" stroke-linejoin="bevel"/>
<path d="M3.153 7.07929H3.333H3.513C4.66634 6.95262 5.333 5.46596 4.773 4.30596L3.513 1.71262C3.49882 1.67644 3.47406 1.64536 3.44195 1.62346C3.40984 1.60156 3.37187 1.58984 3.333 1.58984C3.29414 1.58984 3.25617 1.60156 3.22406 1.62346C3.19195 1.64536 3.16719 1.67644 3.153 1.71262L1.893 4.30596C1.333 5.46596 1.99967 6.95262 3.153 7.07929Z" stroke="#6D64EB" stroke-linecap="round" stroke-linejoin="bevel"/>
<path d="M7.91883 14.3925H8.15883H8.4055C10.0122 14.2192 10.8855 12.1925 10.1188 10.6125L8.41217 7.09252C8.39075 7.04407 8.35573 7.00289 8.31134 6.97398C8.26696 6.94508 8.21513 6.92969 8.16217 6.92969C8.1092 6.92969 8.05737 6.94508 8.01299 6.97398C7.96861 7.00289 7.93358 7.04407 7.91217 7.09252L6.2055 10.6125C5.43883 12.1925 6.31217 14.2192 7.91883 14.3925Z" stroke="#6D64EB" stroke-linecap="round" stroke-linejoin="bevel"/>
</svg>
