<svg width="38" height="38" viewBox="0 0 38 38" fill="none" xmlns="http://www.w3.org/2000/svg">
<path d="M9.51061 3.56738L4.83789 9.79767V31.6037C4.83789 32.4299 5.16609 33.2222 5.75029 33.8064C6.3345 34.3906 7.12685 34.7188 7.95303 34.7188H29.759C30.5852 34.7188 31.3776 34.3906 31.9618 33.8064C32.546 33.2222 32.8742 32.4299 32.8742 31.6037V9.79767L28.2015 3.56738H9.51061Z" stroke="#6D64EB" stroke-width="3" stroke-linecap="round" stroke-linejoin="round"/>
<path d="M4.83789 9.79785H32.8742" stroke="#6D64EB" stroke-width="3.11514" stroke-linecap="round" stroke-linejoin="round"/>
<path d="M25.0861 16.0283C25.0861 17.6807 24.4297 19.2654 23.2613 20.4338C22.0928 21.6022 20.5082 22.2586 18.8558 22.2586C17.2034 22.2586 15.6187 21.6022 14.4503 20.4338C13.2819 19.2654 12.6255 17.6807 12.6255 16.0283" stroke="#6D64EB" stroke-width="3.11514" stroke-linecap="round" stroke-linejoin="round"/>
</svg>
