<svg id="Capa_1" data-name="Capa 1" xmlns="http://www.w3.org/2000/svg" viewBox="0 0 41 36.2"><defs><style>.cls-1{fill:#fff;stroke:#fff;stroke-miterlimit:10;}</style></defs><path class="cls-1" d="M41.8,37.1c-.1-.2-.2-.3-.3-.5-1.3-2.8-4.9-6.1-10.7-6.2h-.2c-5.7,0-9.3,3.1-10.7,6.1,0,.1-.2.2-.3.4s-.3.3-.4.5a10.37,10.37,0,0,0-1.7,6A5.57,5.57,0,0,0,20,48.1a3.29,3.29,0,0,0,1.9.6c1.4,0,2.7-.8,4.2-1.7a14.29,14.29,0,0,1,3-1.6,11.35,11.35,0,0,1,1.4-.1c1,0,1.7.1,1.8.1a20.12,20.12,0,0,1,2.9,1.7c1.4.9,2.7,1.8,4.1,1.8a3.37,3.37,0,0,0,1.7-.5c3.1-1.7,3.6-6.5,1.3-10.6A4.23,4.23,0,0,0,41.8,37.1ZM40,46.6a1.2,1.2,0,0,1-.8.2,7.18,7.18,0,0,1-3-1.4A19.19,19.19,0,0,0,33,43.6a7.43,7.43,0,0,0-2.6-.3,8.44,8.44,0,0,0-2.1.2A16.85,16.85,0,0,0,25,45.3a6.65,6.65,0,0,1-3.2,1.4,1.61,1.61,0,0,1-.9-.3,4,4,0,0,1-1.6-3.2,7.88,7.88,0,0,1,1.4-4.8c.1-.1.2-.2.2-.3a1.58,1.58,0,0,0,.5-.8c1.2-2.4,4.2-5,9-5h.2c4.9.1,8,2.8,9,5.1a2.18,2.18,0,0,0,.5.8c.1.1.2.3.3.4C42.4,41.8,42.1,45.4,40,46.6Z" transform="translate(-9.9 -13.2)"/><path class="cls-1" d="M24.1,29.3A5.48,5.48,0,0,0,28.3,27,9,9,0,0,0,30,21.5,9.46,9.46,0,0,0,28.3,16a5.32,5.32,0,0,0-4.2-2.3A5.32,5.32,0,0,0,19.9,16a9,9,0,0,0-1.7,5.5A9.46,9.46,0,0,0,19.9,27,5.32,5.32,0,0,0,24.1,29.3Zm0-13.6a3.15,3.15,0,0,1,2.6,1.7,7.24,7.24,0,0,1,1.1,4,7,7,0,0,1-1.1,4,3.39,3.39,0,0,1-2.6,1.7,3.15,3.15,0,0,1-2.6-1.7,7.24,7.24,0,0,1-1.1-4,7,7,0,0,1,1.1-4A3.15,3.15,0,0,1,24.1,15.7Z" transform="translate(-9.9 -13.2)"/><path class="cls-1" d="M36.3,29.3A5.48,5.48,0,0,0,40.5,27a9,9,0,0,0,1.7-5.5A9.46,9.46,0,0,0,40.5,16a5.32,5.32,0,0,0-4.2-2.3A5.48,5.48,0,0,0,32.1,16a9,9,0,0,0-1.7,5.5A9.46,9.46,0,0,0,32.1,27,5.32,5.32,0,0,0,36.3,29.3Zm0-13.6a3.15,3.15,0,0,1,2.6,1.7,7.24,7.24,0,0,1,1.1,4,7,7,0,0,1-1.1,4,3.39,3.39,0,0,1-2.6,1.7,3.15,3.15,0,0,1-2.6-1.7,7.24,7.24,0,0,1-1.1-4,7,7,0,0,1,1.1-4A3.15,3.15,0,0,1,36.3,15.7Z" transform="translate(-9.9 -13.2)"/><path class="cls-1" d="M45.7,25C43,25,41,27.7,41,31.1s2,6.1,4.7,6.1,4.7-2.7,4.7-6.1S48.4,25,45.7,25Zm0,10.1A2,2,0,0,1,44,33.9a5.3,5.3,0,0,1,0-5.6,2.38,2.38,0,0,1,1.7-1.2,2,2,0,0,1,1.7,1.2,5.3,5.3,0,0,1,0,5.6A1.89,1.89,0,0,1,45.7,35.1Z" transform="translate(-9.9 -13.2)"/><path class="cls-1" d="M19.8,31.1c0-3.4-2-6.1-4.7-6.1s-4.7,2.7-4.7,6.1,2,6.1,4.7,6.1S19.8,34.5,19.8,31.1Zm-4.7,4a2,2,0,0,1-1.7-1.2,5.3,5.3,0,0,1,0-5.6,2.38,2.38,0,0,1,1.7-1.2,2,2,0,0,1,1.7,1.2,5.3,5.3,0,0,1,0,5.6A1.89,1.89,0,0,1,15.1,35.1Z" transform="translate(-9.9 -13.2)"/></svg>