<svg id="Capa_1" data-name="Capa 1" xmlns="http://www.w3.org/2000/svg" viewBox="0 0 41 36.2"><defs><style>.cls-1{fill:#6d64eb;stroke:#6d64eb;stroke-miterlimit:10;}</style></defs><path class="cls-1" d="M31.9,23.9c-.1-.2-.2-.3-.3-.5-1.3-2.8-4.9-6.1-10.7-6.2h-.2c-5.7,0-9.3,3.1-10.7,6.1,0,.1-.2.2-.3.4s-.3.3-.4.5a10.38,10.38,0,0,0-1.7,6,5.55,5.55,0,0,0,2.5,4.7,3.32,3.32,0,0,0,1.9.6c1.4,0,2.7-.8,4.2-1.7a14.17,14.17,0,0,1,3-1.6,10.85,10.85,0,0,1,1.4-.1c1,0,1.7.1,1.8.1a19.64,19.64,0,0,1,2.9,1.7c1.4.9,2.7,1.8,4.1,1.8a3.3,3.3,0,0,0,1.7-.5c3.1-1.7,3.6-6.5,1.3-10.6A4.25,4.25,0,0,0,31.9,23.9Zm-1.8,9.5a1.19,1.19,0,0,1-.8.2,7.26,7.26,0,0,1-3-1.4,19.73,19.73,0,0,0-3.2-1.8,7.6,7.6,0,0,0-2.6-.3,8.7,8.7,0,0,0-2.1.2,17.31,17.31,0,0,0-3.3,1.8,6.65,6.65,0,0,1-3.2,1.4,1.62,1.62,0,0,1-.9-.3A4,4,0,0,1,9.4,30a7.84,7.84,0,0,1,1.4-4.8c.1-.1.2-.2.2-.3a1.61,1.61,0,0,0,.5-.8c1.2-2.4,4.2-5,9-5h.2c4.9.1,8,2.8,9,5.1a2.3,2.3,0,0,0,.5.8c.1.1.2.3.3.4C32.5,28.6,32.2,32.2,30.1,33.4Z" transform="translate(0 0)"/><path class="cls-1" d="M14.2,16.1a5.47,5.47,0,0,0,4.2-2.3,9,9,0,0,0,1.7-5.5,9.46,9.46,0,0,0-1.7-5.5A5.32,5.32,0,0,0,14.2.5,5.32,5.32,0,0,0,10,2.8,9,9,0,0,0,8.3,8.3,9.46,9.46,0,0,0,10,13.8,5.32,5.32,0,0,0,14.2,16.1Zm0-13.6a3.16,3.16,0,0,1,2.6,1.7,7.25,7.25,0,0,1,1.1,4,7,7,0,0,1-1.1,4,3.39,3.39,0,0,1-2.6,1.7,3.16,3.16,0,0,1-2.6-1.7,7.25,7.25,0,0,1-1.1-4,7,7,0,0,1,1.1-4A3.16,3.16,0,0,1,14.2,2.5Z" transform="translate(0 0)"/><path class="cls-1" d="M26.4,16.1a5.47,5.47,0,0,0,4.2-2.3,9,9,0,0,0,1.7-5.5,9.46,9.46,0,0,0-1.7-5.5A5.32,5.32,0,0,0,26.4.5a5.47,5.47,0,0,0-4.2,2.3,9,9,0,0,0-1.7,5.5,9.46,9.46,0,0,0,1.7,5.5A5.32,5.32,0,0,0,26.4,16.1Zm0-13.6A3.16,3.16,0,0,1,29,4.2a7.25,7.25,0,0,1,1.1,4,7,7,0,0,1-1.1,4,3.39,3.39,0,0,1-2.6,1.7,3.16,3.16,0,0,1-2.6-1.7,7.25,7.25,0,0,1-1.1-4,7,7,0,0,1,1.1-4A3.16,3.16,0,0,1,26.4,2.5Z" transform="translate(0 0)"/><path class="cls-1" d="M35.8,11.8c-2.7,0-4.7,2.7-4.7,6.1s2,6.1,4.7,6.1,4.7-2.7,4.7-6.1S38.5,11.8,35.8,11.8Zm0,10.1a2,2,0,0,1-1.7-1.2,5.29,5.29,0,0,1,0-5.6,2.38,2.38,0,0,1,1.7-1.2,2,2,0,0,1,1.7,1.2,5.29,5.29,0,0,1,0,5.6A1.89,1.89,0,0,1,35.8,21.9Z" transform="translate(0 0)"/><path class="cls-1" d="M9.9,17.9c0-3.4-2-6.1-4.7-6.1S.5,14.5.5,17.9,2.5,24,5.2,24,9.9,21.3,9.9,17.9Zm-4.7,4a2,2,0,0,1-1.7-1.2,5.29,5.29,0,0,1,0-5.6,2.38,2.38,0,0,1,1.7-1.2,2,2,0,0,1,1.7,1.2,5.29,5.29,0,0,1,0,5.6A1.89,1.89,0,0,1,5.2,21.9Z" transform="translate(0 0)"/></svg>